M48
; DRILL file {KiCad (6.0.11-0)} date 2023 March 19, Sunday 15:08:07
; FORMAT={-:-/ absolute / inch / decimal}
; #@! TF.CreationDate,2023-03-19T15:08:07+09:00
; #@! TF.GenerationSoftware,Kicad,Pcbnew,(6.0.11-0)
; #@! TF.FileFunction,Plated,1,2,PTH
FMAT,2
INCH
; #@! TA.AperFunction,Plated,PTH,ViaDrill
T1C0.0079
; #@! TA.AperFunction,Plated,PTH,ComponentDrill
T2C0.0394
%
G90
G05
T1
X4.8293Y-4.3162
X4.8293Y-4.6162
X4.8293Y-4.7162
X4.9293Y-4.3162
X4.9293Y-4.6162
X4.9293Y-4.9162
X4.9606Y-4.5591
X4.9724Y-4.685
X5.126Y-4.7244
X5.1293Y-4.4162
X5.1293Y-4.5162
X5.1293Y-4.8162
X5.1293Y-4.9162
X5.2293Y-4.3162
X5.2293Y-4.4162
X5.2293Y-4.5162
X5.2293Y-4.9162
X5.2874Y-4.622
X5.2992Y-4.6969
X5.3293Y-4.3162
X5.3293Y-4.4162
X5.3293Y-4.9162
X5.4293Y-4.3162
X5.4293Y-4.4162
X5.4293Y-4.5162
X5.4293Y-4.9162
X5.5293Y-4.3162
X5.5293Y-4.4162
X5.5293Y-4.9162
X5.563Y-4.5945
X5.6293Y-4.3162
X5.6293Y-4.4162
X5.6293Y-4.5162
X5.6293Y-4.6162
X5.6293Y-4.8162
X5.6293Y-4.9162
T2
X4.7457Y-4.2563
X4.7457Y-4.3563
X4.7457Y-4.4563
X4.7457Y-4.5563
X4.7457Y-4.6563
X4.7457Y-4.7563
X4.7457Y-4.8563
X4.7457Y-4.9563
T0
M30
