%TF.GenerationSoftware,KiCad,Pcbnew,(6.0.11-0)*%
%TF.CreationDate,2023-03-20T11:48:27+09:00*%
%TF.ProjectId,MB-RL7021-11-M5StickC,4d422d52-4c37-4303-9231-2d31312d4d35,rev?*%
%TF.SameCoordinates,Original*%
%TF.FileFunction,Legend,Top*%
%TF.FilePolarity,Positive*%
%FSLAX46Y46*%
G04 Gerber Fmt 4.6, Leading zero omitted, Abs format (unit mm)*
G04 Created by KiCad (PCBNEW (6.0.11-0)) date 2023-03-20 11:48:27*
%MOMM*%
%LPD*%
G01*
G04 APERTURE LIST*
G04 Aperture macros list*
%AMRoundRect*
0 Rectangle with rounded corners*
0 $1 Rounding radius*
0 $2 $3 $4 $5 $6 $7 $8 $9 X,Y pos of 4 corners*
0 Add a 4 corners polygon primitive as box body*
4,1,4,$2,$3,$4,$5,$6,$7,$8,$9,$2,$3,0*
0 Add four circle primitives for the rounded corners*
1,1,$1+$1,$2,$3*
1,1,$1+$1,$4,$5*
1,1,$1+$1,$6,$7*
1,1,$1+$1,$8,$9*
0 Add four rect primitives between the rounded corners*
20,1,$1+$1,$2,$3,$4,$5,0*
20,1,$1+$1,$4,$5,$6,$7,0*
20,1,$1+$1,$6,$7,$8,$9,0*
20,1,$1+$1,$8,$9,$2,$3,0*%
G04 Aperture macros list end*
%ADD10C,0.150000*%
%ADD11C,0.120000*%
%ADD12C,2.200000*%
%ADD13RoundRect,0.075000X0.725000X0.075000X-0.725000X0.075000X-0.725000X-0.075000X0.725000X-0.075000X0*%
%ADD14RoundRect,0.225000X0.250000X-0.225000X0.250000X0.225000X-0.250000X0.225000X-0.250000X-0.225000X0*%
%ADD15R,1.700000X1.700000*%
%ADD16O,1.700000X1.700000*%
G04 APERTURE END LIST*
D10*
X141285714Y-123092380D02*
X141285714Y-122092380D01*
X141619047Y-122806666D01*
X141952380Y-122092380D01*
X141952380Y-123092380D01*
X142761904Y-122568571D02*
X142904761Y-122616190D01*
X142952380Y-122663809D01*
X143000000Y-122759047D01*
X143000000Y-122901904D01*
X142952380Y-122997142D01*
X142904761Y-123044761D01*
X142809523Y-123092380D01*
X142428571Y-123092380D01*
X142428571Y-122092380D01*
X142761904Y-122092380D01*
X142857142Y-122140000D01*
X142904761Y-122187619D01*
X142952380Y-122282857D01*
X142952380Y-122378095D01*
X142904761Y-122473333D01*
X142857142Y-122520952D01*
X142761904Y-122568571D01*
X142428571Y-122568571D01*
X143428571Y-122711428D02*
X144190476Y-122711428D01*
X145238095Y-123092380D02*
X144904761Y-122616190D01*
X144666666Y-123092380D02*
X144666666Y-122092380D01*
X145047619Y-122092380D01*
X145142857Y-122140000D01*
X145190476Y-122187619D01*
X145238095Y-122282857D01*
X145238095Y-122425714D01*
X145190476Y-122520952D01*
X145142857Y-122568571D01*
X145047619Y-122616190D01*
X144666666Y-122616190D01*
X146142857Y-123092380D02*
X145666666Y-123092380D01*
X145666666Y-122092380D01*
X146380952Y-122092380D02*
X147047619Y-122092380D01*
X146619047Y-123092380D01*
X147619047Y-122092380D02*
X147714285Y-122092380D01*
X147809523Y-122140000D01*
X147857142Y-122187619D01*
X147904761Y-122282857D01*
X147952380Y-122473333D01*
X147952380Y-122711428D01*
X147904761Y-122901904D01*
X147857142Y-122997142D01*
X147809523Y-123044761D01*
X147714285Y-123092380D01*
X147619047Y-123092380D01*
X147523809Y-123044761D01*
X147476190Y-122997142D01*
X147428571Y-122901904D01*
X147380952Y-122711428D01*
X147380952Y-122473333D01*
X147428571Y-122282857D01*
X147476190Y-122187619D01*
X147523809Y-122140000D01*
X147619047Y-122092380D01*
X148333333Y-122187619D02*
X148380952Y-122140000D01*
X148476190Y-122092380D01*
X148714285Y-122092380D01*
X148809523Y-122140000D01*
X148857142Y-122187619D01*
X148904761Y-122282857D01*
X148904761Y-122378095D01*
X148857142Y-122520952D01*
X148285714Y-123092380D01*
X148904761Y-123092380D01*
X149238095Y-122092380D02*
X149857142Y-122092380D01*
X149523809Y-122473333D01*
X149666666Y-122473333D01*
X149761904Y-122520952D01*
X149809523Y-122568571D01*
X149857142Y-122663809D01*
X149857142Y-122901904D01*
X149809523Y-122997142D01*
X149761904Y-123044761D01*
X149666666Y-123092380D01*
X149380952Y-123092380D01*
X149285714Y-123044761D01*
X149238095Y-122997142D01*
X150285714Y-122711428D02*
X151047619Y-122711428D01*
X152047619Y-123092380D02*
X151476190Y-123092380D01*
X151761904Y-123092380D02*
X151761904Y-122092380D01*
X151666666Y-122235238D01*
X151571428Y-122330476D01*
X151476190Y-122378095D01*
X153000000Y-123092380D02*
X152428571Y-123092380D01*
X152714285Y-123092380D02*
X152714285Y-122092380D01*
X152619047Y-122235238D01*
X152523809Y-122330476D01*
X152428571Y-122378095D01*
X154190476Y-123092380D02*
X154190476Y-122092380D01*
X154523809Y-122806666D01*
X154857142Y-122092380D01*
X154857142Y-123092380D01*
X155809523Y-122092380D02*
X155333333Y-122092380D01*
X155285714Y-122568571D01*
X155333333Y-122520952D01*
X155428571Y-122473333D01*
X155666666Y-122473333D01*
X155761904Y-122520952D01*
X155809523Y-122568571D01*
X155857142Y-122663809D01*
X155857142Y-122901904D01*
X155809523Y-122997142D01*
X155761904Y-123044761D01*
X155666666Y-123092380D01*
X155428571Y-123092380D01*
X155333333Y-123044761D01*
X155285714Y-122997142D01*
X156238095Y-123044761D02*
X156380952Y-123092380D01*
X156619047Y-123092380D01*
X156714285Y-123044761D01*
X156761904Y-122997142D01*
X156809523Y-122901904D01*
X156809523Y-122806666D01*
X156761904Y-122711428D01*
X156714285Y-122663809D01*
X156619047Y-122616190D01*
X156428571Y-122568571D01*
X156333333Y-122520952D01*
X156285714Y-122473333D01*
X156238095Y-122378095D01*
X156238095Y-122282857D01*
X156285714Y-122187619D01*
X156333333Y-122140000D01*
X156428571Y-122092380D01*
X156666666Y-122092380D01*
X156809523Y-122140000D01*
X157095238Y-122425714D02*
X157476190Y-122425714D01*
X157238095Y-122092380D02*
X157238095Y-122949523D01*
X157285714Y-123044761D01*
X157380952Y-123092380D01*
X157476190Y-123092380D01*
X157809523Y-123092380D02*
X157809523Y-122425714D01*
X157809523Y-122092380D02*
X157761904Y-122140000D01*
X157809523Y-122187619D01*
X157857142Y-122140000D01*
X157809523Y-122092380D01*
X157809523Y-122187619D01*
X158714285Y-123044761D02*
X158619047Y-123092380D01*
X158428571Y-123092380D01*
X158333333Y-123044761D01*
X158285714Y-122997142D01*
X158238095Y-122901904D01*
X158238095Y-122616190D01*
X158285714Y-122520952D01*
X158333333Y-122473333D01*
X158428571Y-122425714D01*
X158619047Y-122425714D01*
X158714285Y-122473333D01*
X159142857Y-123092380D02*
X159142857Y-122092380D01*
X159238095Y-122711428D02*
X159523809Y-123092380D01*
X159523809Y-122425714D02*
X159142857Y-122806666D01*
X160523809Y-122997142D02*
X160476190Y-123044761D01*
X160333333Y-123092380D01*
X160238095Y-123092380D01*
X160095238Y-123044761D01*
X160000000Y-122949523D01*
X159952380Y-122854285D01*
X159904761Y-122663809D01*
X159904761Y-122520952D01*
X159952380Y-122330476D01*
X160000000Y-122235238D01*
X160095238Y-122140000D01*
X160238095Y-122092380D01*
X160333333Y-122092380D01*
X160476190Y-122140000D01*
X160523809Y-122187619D01*
X162047619Y-122568571D02*
X162190476Y-122616190D01*
X162238095Y-122663809D01*
X162285714Y-122759047D01*
X162285714Y-122901904D01*
X162238095Y-122997142D01*
X162190476Y-123044761D01*
X162095238Y-123092380D01*
X161714285Y-123092380D01*
X161714285Y-122092380D01*
X162047619Y-122092380D01*
X162142857Y-122140000D01*
X162190476Y-122187619D01*
X162238095Y-122282857D01*
X162238095Y-122378095D01*
X162190476Y-122473333D01*
X162142857Y-122520952D01*
X162047619Y-122568571D01*
X161714285Y-122568571D01*
X162857142Y-123092380D02*
X162761904Y-123044761D01*
X162714285Y-122997142D01*
X162666666Y-122901904D01*
X162666666Y-122616190D01*
X162714285Y-122520952D01*
X162761904Y-122473333D01*
X162857142Y-122425714D01*
X163000000Y-122425714D01*
X163095238Y-122473333D01*
X163142857Y-122520952D01*
X163190476Y-122616190D01*
X163190476Y-122901904D01*
X163142857Y-122997142D01*
X163095238Y-123044761D01*
X163000000Y-123092380D01*
X162857142Y-123092380D01*
X164047619Y-123092380D02*
X164047619Y-122568571D01*
X164000000Y-122473333D01*
X163904761Y-122425714D01*
X163714285Y-122425714D01*
X163619047Y-122473333D01*
X164047619Y-123044761D02*
X163952380Y-123092380D01*
X163714285Y-123092380D01*
X163619047Y-123044761D01*
X163571428Y-122949523D01*
X163571428Y-122854285D01*
X163619047Y-122759047D01*
X163714285Y-122711428D01*
X163952380Y-122711428D01*
X164047619Y-122663809D01*
X164523809Y-123092380D02*
X164523809Y-122425714D01*
X164523809Y-122616190D02*
X164571428Y-122520952D01*
X164619047Y-122473333D01*
X164714285Y-122425714D01*
X164809523Y-122425714D01*
X165571428Y-123092380D02*
X165571428Y-122092380D01*
X165571428Y-123044761D02*
X165476190Y-123092380D01*
X165285714Y-123092380D01*
X165190476Y-123044761D01*
X165142857Y-122997142D01*
X165095238Y-122901904D01*
X165095238Y-122616190D01*
X165142857Y-122520952D01*
X165190476Y-122473333D01*
X165285714Y-122425714D01*
X165476190Y-122425714D01*
X165571428Y-122473333D01*
X166809523Y-123092380D02*
X166809523Y-122425714D01*
X166809523Y-122616190D02*
X166857142Y-122520952D01*
X166904761Y-122473333D01*
X167000000Y-122425714D01*
X167095238Y-122425714D01*
X167809523Y-123044761D02*
X167714285Y-123092380D01*
X167523809Y-123092380D01*
X167428571Y-123044761D01*
X167380952Y-122949523D01*
X167380952Y-122568571D01*
X167428571Y-122473333D01*
X167523809Y-122425714D01*
X167714285Y-122425714D01*
X167809523Y-122473333D01*
X167857142Y-122568571D01*
X167857142Y-122663809D01*
X167380952Y-122759047D01*
X168190476Y-122425714D02*
X168428571Y-123092380D01*
X168666666Y-122425714D01*
X169571428Y-123092380D02*
X169000000Y-123092380D01*
X169285714Y-123092380D02*
X169285714Y-122092380D01*
X169190476Y-122235238D01*
X169095238Y-122330476D01*
X169000000Y-122378095D01*
X170000000Y-122997142D02*
X170047619Y-123044761D01*
X170000000Y-123092380D01*
X169952380Y-123044761D01*
X170000000Y-122997142D01*
X170000000Y-123092380D01*
X170666666Y-122092380D02*
X170761904Y-122092380D01*
X170857142Y-122140000D01*
X170904761Y-122187619D01*
X170952380Y-122282857D01*
X171000000Y-122473333D01*
X171000000Y-122711428D01*
X170952380Y-122901904D01*
X170904761Y-122997142D01*
X170857142Y-123044761D01*
X170761904Y-123092380D01*
X170666666Y-123092380D01*
X170571428Y-123044761D01*
X170523809Y-122997142D01*
X170476190Y-122901904D01*
X170428571Y-122711428D01*
X170428571Y-122473333D01*
X170476190Y-122282857D01*
X170523809Y-122187619D01*
X170571428Y-122140000D01*
X170666666Y-122092380D01*
X151976190Y-123892857D02*
X152309523Y-123845238D01*
X152119047Y-123654761D02*
X152119047Y-124607142D01*
X151976190Y-124511904D01*
X151976190Y-124321428D01*
X152261904Y-124178571D01*
X152452380Y-124226190D01*
X152595238Y-124321428D01*
X152547619Y-124559523D01*
X152309523Y-124607142D01*
X152452380Y-123797619D02*
X152595238Y-123988095D01*
X153166666Y-123654761D02*
X153166666Y-124654761D01*
X153023809Y-123892857D02*
X153214285Y-123845238D01*
X153166666Y-123892857D01*
X152976190Y-124464285D02*
X153404761Y-123845238D01*
X153547619Y-123845238D01*
X153595238Y-123988095D01*
X153547619Y-124321428D01*
X153547619Y-124607142D01*
X153690476Y-124416666D01*
X154404761Y-123654761D02*
X154119047Y-124702380D01*
X154357142Y-124226190D01*
X154452380Y-124226190D01*
X154547619Y-124702380D01*
X154595238Y-124702380D01*
X154738095Y-124464285D01*
X155261904Y-123654761D02*
X155261904Y-124464285D01*
X155309523Y-124607142D01*
X155404761Y-124702380D01*
X155547619Y-124702380D01*
X155690476Y-124607142D01*
X155738095Y-124416666D01*
X155500000Y-123988095D02*
X155595238Y-124130952D01*
X155642857Y-123940476D02*
X155738095Y-124083333D01*
X156404761Y-123654761D02*
X156595238Y-123797619D01*
X156452380Y-123940476D02*
X156500000Y-124226190D01*
X156595238Y-124416666D01*
X156547619Y-124607142D01*
X156404761Y-124607142D01*
X156309523Y-124511904D01*
X156261904Y-124178571D02*
X156166666Y-124559523D01*
X156690476Y-124226190D02*
X156785714Y-124511904D01*
X156738095Y-123607142D02*
X156785714Y-123607142D01*
X156833333Y-123654761D01*
X156833333Y-123702380D01*
X156785714Y-123750000D01*
X156738095Y-123750000D01*
X156690476Y-123702380D01*
X156690476Y-123654761D01*
X156738095Y-123607142D01*
X157452380Y-123654761D02*
X157642857Y-123797619D01*
X157404761Y-123845238D02*
X157309523Y-124416666D01*
X157452380Y-124226190D01*
X157642857Y-124178571D01*
X157785714Y-124321428D01*
X157738095Y-124559523D01*
X157452380Y-124702380D01*
X158404761Y-123654761D02*
X158404761Y-124654761D01*
X158261904Y-123892857D02*
X158404761Y-123892857D01*
X158404761Y-123940476D01*
X158214285Y-124464285D02*
X158547619Y-123940476D01*
X158738095Y-123845238D01*
X158880952Y-123892857D01*
X158928571Y-124083333D01*
X158880952Y-124416666D01*
X158738095Y-124607142D01*
X158642857Y-124607142D01*
X158547619Y-124559523D01*
X158547619Y-124416666D01*
X158690476Y-124369047D01*
X158928571Y-124559523D01*
X159309523Y-124130952D02*
X159738095Y-124035714D01*
X159880952Y-124083333D01*
X159928571Y-124273809D01*
X159833333Y-124416666D01*
X159547619Y-124559523D01*
X160880952Y-123940476D02*
X160500000Y-124226190D01*
X160404761Y-124321428D01*
X160404761Y-124511904D01*
X160500000Y-124654761D01*
X160880952Y-124654761D01*
X160500000Y-123607142D02*
X160547619Y-123845238D01*
X160642857Y-124083333D01*
X148952380Y-126312380D02*
X148952380Y-125312380D01*
X148952380Y-126264761D02*
X148857142Y-126312380D01*
X148666666Y-126312380D01*
X148571428Y-126264761D01*
X148523809Y-126217142D01*
X148476190Y-126121904D01*
X148476190Y-125836190D01*
X148523809Y-125740952D01*
X148571428Y-125693333D01*
X148666666Y-125645714D01*
X148857142Y-125645714D01*
X148952380Y-125693333D01*
X149809523Y-126264761D02*
X149714285Y-126312380D01*
X149523809Y-126312380D01*
X149428571Y-126264761D01*
X149380952Y-126169523D01*
X149380952Y-125788571D01*
X149428571Y-125693333D01*
X149523809Y-125645714D01*
X149714285Y-125645714D01*
X149809523Y-125693333D01*
X149857142Y-125788571D01*
X149857142Y-125883809D01*
X149380952Y-125979047D01*
X150238095Y-126264761D02*
X150333333Y-126312380D01*
X150523809Y-126312380D01*
X150619047Y-126264761D01*
X150666666Y-126169523D01*
X150666666Y-126121904D01*
X150619047Y-126026666D01*
X150523809Y-125979047D01*
X150380952Y-125979047D01*
X150285714Y-125931428D01*
X150238095Y-125836190D01*
X150238095Y-125788571D01*
X150285714Y-125693333D01*
X150380952Y-125645714D01*
X150523809Y-125645714D01*
X150619047Y-125693333D01*
X151095238Y-126312380D02*
X151095238Y-125645714D01*
X151095238Y-125312380D02*
X151047619Y-125360000D01*
X151095238Y-125407619D01*
X151142857Y-125360000D01*
X151095238Y-125312380D01*
X151095238Y-125407619D01*
X152000000Y-125645714D02*
X152000000Y-126455238D01*
X151952380Y-126550476D01*
X151904761Y-126598095D01*
X151809523Y-126645714D01*
X151666666Y-126645714D01*
X151571428Y-126598095D01*
X152000000Y-126264761D02*
X151904761Y-126312380D01*
X151714285Y-126312380D01*
X151619047Y-126264761D01*
X151571428Y-126217142D01*
X151523809Y-126121904D01*
X151523809Y-125836190D01*
X151571428Y-125740952D01*
X151619047Y-125693333D01*
X151714285Y-125645714D01*
X151904761Y-125645714D01*
X152000000Y-125693333D01*
X152476190Y-125645714D02*
X152476190Y-126312380D01*
X152476190Y-125740952D02*
X152523809Y-125693333D01*
X152619047Y-125645714D01*
X152761904Y-125645714D01*
X152857142Y-125693333D01*
X152904761Y-125788571D01*
X152904761Y-126312380D01*
X153761904Y-126264761D02*
X153666666Y-126312380D01*
X153476190Y-126312380D01*
X153380952Y-126264761D01*
X153333333Y-126169523D01*
X153333333Y-125788571D01*
X153380952Y-125693333D01*
X153476190Y-125645714D01*
X153666666Y-125645714D01*
X153761904Y-125693333D01*
X153809523Y-125788571D01*
X153809523Y-125883809D01*
X153333333Y-125979047D01*
X154666666Y-126312380D02*
X154666666Y-125312380D01*
X154666666Y-126264761D02*
X154571428Y-126312380D01*
X154380952Y-126312380D01*
X154285714Y-126264761D01*
X154238095Y-126217142D01*
X154190476Y-126121904D01*
X154190476Y-125836190D01*
X154238095Y-125740952D01*
X154285714Y-125693333D01*
X154380952Y-125645714D01*
X154571428Y-125645714D01*
X154666666Y-125693333D01*
X155904761Y-126312380D02*
X155904761Y-125312380D01*
X155904761Y-125693333D02*
X156000000Y-125645714D01*
X156190476Y-125645714D01*
X156285714Y-125693333D01*
X156333333Y-125740952D01*
X156380952Y-125836190D01*
X156380952Y-126121904D01*
X156333333Y-126217142D01*
X156285714Y-126264761D01*
X156190476Y-126312380D01*
X156000000Y-126312380D01*
X155904761Y-126264761D01*
X156714285Y-125645714D02*
X156952380Y-126312380D01*
X157190476Y-125645714D02*
X156952380Y-126312380D01*
X156857142Y-126550476D01*
X156809523Y-126598095D01*
X156714285Y-126645714D01*
X158952380Y-125836190D02*
X158904761Y-125788571D01*
X158809523Y-125740952D01*
X158714285Y-125740952D01*
X158619047Y-125788571D01*
X158571428Y-125836190D01*
X158523809Y-125931428D01*
X158523809Y-126026666D01*
X158571428Y-126121904D01*
X158619047Y-126169523D01*
X158714285Y-126217142D01*
X158809523Y-126217142D01*
X158904761Y-126169523D01*
X158952380Y-126121904D01*
X158952380Y-125740952D02*
X158952380Y-126121904D01*
X159000000Y-126169523D01*
X159047619Y-126169523D01*
X159142857Y-126121904D01*
X159190476Y-126026666D01*
X159190476Y-125788571D01*
X159095238Y-125645714D01*
X158952380Y-125550476D01*
X158761904Y-125502857D01*
X158571428Y-125550476D01*
X158428571Y-125645714D01*
X158333333Y-125788571D01*
X158285714Y-125979047D01*
X158333333Y-126169523D01*
X158428571Y-126312380D01*
X158571428Y-126407619D01*
X158761904Y-126455238D01*
X158952380Y-126407619D01*
X159095238Y-126312380D01*
X159380952Y-126407619D02*
X160142857Y-126407619D01*
X160380952Y-125645714D02*
X160380952Y-126312380D01*
X160380952Y-125740952D02*
X160428571Y-125693333D01*
X160523809Y-125645714D01*
X160666666Y-125645714D01*
X160761904Y-125693333D01*
X160809523Y-125788571D01*
X160809523Y-126312380D01*
X161428571Y-126312380D02*
X161333333Y-126264761D01*
X161285714Y-126217142D01*
X161238095Y-126121904D01*
X161238095Y-125836190D01*
X161285714Y-125740952D01*
X161333333Y-125693333D01*
X161428571Y-125645714D01*
X161571428Y-125645714D01*
X161666666Y-125693333D01*
X161714285Y-125740952D01*
X161761904Y-125836190D01*
X161761904Y-126121904D01*
X161714285Y-126217142D01*
X161666666Y-126264761D01*
X161571428Y-126312380D01*
X161428571Y-126312380D01*
X162142857Y-126264761D02*
X162238095Y-126312380D01*
X162428571Y-126312380D01*
X162523809Y-126264761D01*
X162571428Y-126169523D01*
X162571428Y-126121904D01*
X162523809Y-126026666D01*
X162428571Y-125979047D01*
X162285714Y-125979047D01*
X162190476Y-125931428D01*
X162142857Y-125836190D01*
X162142857Y-125788571D01*
X162190476Y-125693333D01*
X162285714Y-125645714D01*
X162428571Y-125645714D01*
X162523809Y-125693333D01*
X163000000Y-126312380D02*
X163000000Y-125645714D01*
X163000000Y-125312380D02*
X162952380Y-125360000D01*
X163000000Y-125407619D01*
X163047619Y-125360000D01*
X163000000Y-125312380D01*
X163000000Y-125407619D01*
X163333333Y-125645714D02*
X163714285Y-125645714D01*
X163476190Y-125312380D02*
X163476190Y-126169523D01*
X163523809Y-126264761D01*
X163619047Y-126312380D01*
X163714285Y-126312380D01*
X164476190Y-126312380D02*
X164476190Y-125788571D01*
X164428571Y-125693333D01*
X164333333Y-125645714D01*
X164142857Y-125645714D01*
X164047619Y-125693333D01*
X164476190Y-126264761D02*
X164380952Y-126312380D01*
X164142857Y-126312380D01*
X164047619Y-126264761D01*
X164000000Y-126169523D01*
X164000000Y-126074285D01*
X164047619Y-125979047D01*
X164142857Y-125931428D01*
X164380952Y-125931428D01*
X164476190Y-125883809D01*
%TO.C,U1*%
X135038095Y-112052380D02*
X135038095Y-112861904D01*
X135085714Y-112957142D01*
X135133333Y-113004761D01*
X135228571Y-113052380D01*
X135419047Y-113052380D01*
X135514285Y-113004761D01*
X135561904Y-112957142D01*
X135609523Y-112861904D01*
X135609523Y-112052380D01*
X136609523Y-113052380D02*
X136038095Y-113052380D01*
X136323809Y-113052380D02*
X136323809Y-112052380D01*
X136228571Y-112195238D01*
X136133333Y-112290476D01*
X136038095Y-112338095D01*
%TO.C,C1*%
X143657142Y-119866666D02*
X143704761Y-119914285D01*
X143752380Y-120057142D01*
X143752380Y-120152380D01*
X143704761Y-120295238D01*
X143609523Y-120390476D01*
X143514285Y-120438095D01*
X143323809Y-120485714D01*
X143180952Y-120485714D01*
X142990476Y-120438095D01*
X142895238Y-120390476D01*
X142800000Y-120295238D01*
X142752380Y-120152380D01*
X142752380Y-120057142D01*
X142800000Y-119914285D01*
X142847619Y-119866666D01*
X143752380Y-118914285D02*
X143752380Y-119485714D01*
X143752380Y-119200000D02*
X142752380Y-119200000D01*
X142895238Y-119295238D01*
X142990476Y-119390476D01*
X143038095Y-119485714D01*
%TO.C,J1*%
X122806666Y-107652380D02*
X122806666Y-108366666D01*
X122759047Y-108509523D01*
X122663809Y-108604761D01*
X122520952Y-108652380D01*
X122425714Y-108652380D01*
X123806666Y-108652380D02*
X123235238Y-108652380D01*
X123520952Y-108652380D02*
X123520952Y-107652380D01*
X123425714Y-107795238D01*
X123330476Y-107890476D01*
X123235238Y-107938095D01*
D11*
%TO.C,U1*%
X172000000Y-125000000D02*
X172000000Y-109000000D01*
X139800000Y-120550000D02*
X139800000Y-113450000D01*
X172000000Y-109000000D02*
X134000000Y-109000000D01*
X134000000Y-125000000D02*
X172000000Y-125000000D01*
X136200000Y-113450000D02*
X136200000Y-120550000D01*
X139800000Y-113450000D02*
X136200000Y-113450000D01*
X136200000Y-120550000D02*
X139800000Y-120550000D01*
X134000000Y-109000000D02*
X134000000Y-125000000D01*
%TO.C,C1*%
X141290000Y-119915580D02*
X141290000Y-119634420D01*
X142310000Y-119915580D02*
X142310000Y-119634420D01*
%TO.C,J1*%
X116440000Y-123730000D02*
X110440000Y-123730000D01*
X116440000Y-116110000D02*
X110440000Y-116110000D01*
X119497071Y-111030000D02*
X119100000Y-111030000D01*
X119430000Y-125510000D02*
X119100000Y-125510000D01*
X110440000Y-107730000D02*
X116440000Y-107730000D01*
X116440000Y-127220000D02*
X119100000Y-127220000D01*
X110440000Y-117890000D02*
X116440000Y-117890000D01*
X110440000Y-120430000D02*
X116440000Y-120430000D01*
X119497071Y-115350000D02*
X119100000Y-115350000D01*
X116440000Y-125730000D02*
X110440000Y-125730000D01*
X116440000Y-106780000D02*
X116440000Y-127220000D01*
X119100000Y-124620000D02*
X116440000Y-124620000D01*
X110440000Y-111030000D02*
X110440000Y-110270000D01*
X110440000Y-108490000D02*
X110440000Y-107730000D01*
X116440000Y-108490000D02*
X110440000Y-108490000D01*
X110440000Y-122970000D02*
X116440000Y-122970000D01*
X119100000Y-106780000D02*
X116440000Y-106780000D01*
X110440000Y-116110000D02*
X110440000Y-115350000D01*
X119497071Y-122970000D02*
X119100000Y-122970000D01*
X116440000Y-126270000D02*
X110440000Y-126270000D01*
X119100000Y-119540000D02*
X116440000Y-119540000D01*
X119497071Y-110270000D02*
X119100000Y-110270000D01*
X119497071Y-113570000D02*
X119100000Y-113570000D01*
X116440000Y-126090000D02*
X110440000Y-126090000D01*
X121810000Y-127160000D02*
X120540000Y-127160000D01*
X119497071Y-120430000D02*
X119100000Y-120430000D01*
X116440000Y-113570000D02*
X110440000Y-113570000D01*
X110440000Y-118650000D02*
X110440000Y-117890000D01*
X116440000Y-125610000D02*
X110440000Y-125610000D01*
X110440000Y-112810000D02*
X116440000Y-112810000D01*
X116440000Y-125850000D02*
X110440000Y-125850000D01*
X110440000Y-126270000D02*
X110440000Y-125510000D01*
X119497071Y-123730000D02*
X119100000Y-123730000D01*
X116440000Y-125970000D02*
X110440000Y-125970000D01*
X110440000Y-125510000D02*
X116440000Y-125510000D01*
X116440000Y-121190000D02*
X110440000Y-121190000D01*
X119497071Y-112810000D02*
X119100000Y-112810000D01*
X119497071Y-108490000D02*
X119100000Y-108490000D01*
X119100000Y-111920000D02*
X116440000Y-111920000D01*
X119100000Y-114460000D02*
X116440000Y-114460000D01*
X110440000Y-123730000D02*
X110440000Y-122970000D01*
X110440000Y-121190000D02*
X110440000Y-120430000D01*
X119497071Y-116110000D02*
X119100000Y-116110000D01*
X119430000Y-126270000D02*
X119100000Y-126270000D01*
X119497071Y-118650000D02*
X119100000Y-118650000D01*
X116440000Y-111030000D02*
X110440000Y-111030000D01*
X110440000Y-115350000D02*
X116440000Y-115350000D01*
X119497071Y-117890000D02*
X119100000Y-117890000D01*
X119100000Y-127220000D02*
X119100000Y-106780000D01*
X119497071Y-107730000D02*
X119100000Y-107730000D01*
X119497071Y-121190000D02*
X119100000Y-121190000D01*
X121810000Y-125890000D02*
X121810000Y-127160000D01*
X119100000Y-109380000D02*
X116440000Y-109380000D01*
X110440000Y-110270000D02*
X116440000Y-110270000D01*
X110440000Y-113570000D02*
X110440000Y-112810000D01*
X119100000Y-117000000D02*
X116440000Y-117000000D01*
X116440000Y-126210000D02*
X110440000Y-126210000D01*
X116440000Y-118650000D02*
X110440000Y-118650000D01*
X119100000Y-122080000D02*
X116440000Y-122080000D01*
%TD*%
%LPC*%
D12*
%TO.C,H2*%
X128000000Y-124500000D03*
%TD*%
%TO.C,H4*%
X180500000Y-109500000D03*
%TD*%
%TO.C,U1*%
X164500000Y-111500000D03*
D13*
X139800000Y-119250000D03*
X136200000Y-119250000D03*
X139800000Y-118750000D03*
X136200000Y-118750000D03*
X139800000Y-118250000D03*
X136200000Y-118250000D03*
X139800000Y-117750000D03*
X136200000Y-117750000D03*
X139800000Y-117250000D03*
X136200000Y-117250000D03*
X139800000Y-116750000D03*
X136200000Y-116750000D03*
X139800000Y-116250000D03*
X136200000Y-116250000D03*
X139800000Y-115750000D03*
X136200000Y-115750000D03*
X139800000Y-115250000D03*
X136200000Y-115250000D03*
X139800000Y-114750000D03*
X136200000Y-114750000D03*
%TD*%
D14*
%TO.C,C1*%
X141800000Y-120550000D03*
X141800000Y-119000000D03*
%TD*%
D15*
%TO.C,J1*%
X120540000Y-125890000D03*
D16*
X120540000Y-123350000D03*
X120540000Y-120810000D03*
X120540000Y-118270000D03*
X120540000Y-115730000D03*
X120540000Y-113190000D03*
X120540000Y-110650000D03*
X120540000Y-108110000D03*
%TD*%
D12*
%TO.C,H1*%
X128000000Y-109500000D03*
%TD*%
%TO.C,H3*%
X180500000Y-124500000D03*
%TD*%
M02*
