%TF.GenerationSoftware,KiCad,Pcbnew,(6.0.11-0)*%
%TF.CreationDate,2023-03-20T11:48:27+09:00*%
%TF.ProjectId,MB-RL7021-11-M5StickC,4d422d52-4c37-4303-9231-2d31312d4d35,rev?*%
%TF.SameCoordinates,Original*%
%TF.FileFunction,Copper,L2,Bot*%
%TF.FilePolarity,Positive*%
%FSLAX46Y46*%
G04 Gerber Fmt 4.6, Leading zero omitted, Abs format (unit mm)*
G04 Created by KiCad (PCBNEW (6.0.11-0)) date 2023-03-20 11:48:27*
%MOMM*%
%LPD*%
G01*
G04 APERTURE LIST*
%TA.AperFunction,ComponentPad*%
%ADD10R,1.700000X1.700000*%
%TD*%
%TA.AperFunction,ComponentPad*%
%ADD11O,1.700000X1.700000*%
%TD*%
%TA.AperFunction,ViaPad*%
%ADD12C,0.460000*%
%TD*%
%TA.AperFunction,Conductor*%
%ADD13C,0.200000*%
%TD*%
%TA.AperFunction,Conductor*%
%ADD14C,0.127000*%
%TD*%
G04 APERTURE END LIST*
D10*
%TO.P,J1,1,Pin_1*%
%TO.N,GND*%
X120540000Y-125890000D03*
D11*
%TO.P,J1,2,Pin_2*%
%TO.N,unconnected-(J1-Pad2)*%
X120540000Y-123350000D03*
%TO.P,J1,3,Pin_3*%
%TO.N,/M5_STICKC_RX*%
X120540000Y-120810000D03*
%TO.P,J1,4,Pin_4*%
%TO.N,unconnected-(J1-Pad4)*%
X120540000Y-118270000D03*
%TO.P,J1,5,Pin_5*%
%TO.N,/M5_STICKC_TX*%
X120540000Y-115730000D03*
%TO.P,J1,6,Pin_6*%
%TO.N,unconnected-(J1-Pad6)*%
X120540000Y-113190000D03*
%TO.P,J1,7,Pin_7*%
%TO.N,+3V3*%
X120540000Y-110650000D03*
%TO.P,J1,8,Pin_8*%
%TO.N,unconnected-(J1-Pad8)*%
X120540000Y-108110000D03*
%TD*%
D12*
%TO.N,GND*%
X142985000Y-109632500D03*
X130285000Y-122332500D03*
X130200000Y-120000000D03*
X142985000Y-117252500D03*
X142985000Y-124872500D03*
X132825000Y-124872500D03*
X142985000Y-122332500D03*
X137905000Y-112172500D03*
X125205000Y-109632500D03*
X130285000Y-114712500D03*
X137905000Y-124872500D03*
X137905000Y-114712500D03*
X125205000Y-117252500D03*
X135365000Y-109632500D03*
X130285000Y-112172500D03*
X122665000Y-119792500D03*
X135365000Y-112172500D03*
X142985000Y-114712500D03*
X140445000Y-124872500D03*
X140445000Y-112172500D03*
X135365000Y-124872500D03*
X132825000Y-114712500D03*
X134600000Y-119300000D03*
X130285000Y-124872500D03*
X132825000Y-109632500D03*
X132825000Y-112172500D03*
X125205000Y-124872500D03*
X122665000Y-117252500D03*
X142985000Y-112172500D03*
X140445000Y-109632500D03*
X137905000Y-109632500D03*
X122665000Y-109632500D03*
%TO.N,/M5_STICKC_RX*%
X126300000Y-119000000D03*
X134300000Y-117400000D03*
%TO.N,/M5_STICKC_TX*%
X126000000Y-115800000D03*
X141300000Y-116700000D03*
%TD*%
D13*
%TO.N,GND*%
X130200000Y-120000000D02*
X133900000Y-120000000D01*
X133900000Y-120000000D02*
X134600000Y-119300000D01*
D14*
%TO.N,/M5_STICKC_RX*%
X127900000Y-117400000D02*
X134300000Y-117400000D01*
X126300000Y-119000000D02*
X127900000Y-117400000D01*
%TO.N,/M5_STICKC_TX*%
X126900000Y-116700000D02*
X141300000Y-116700000D01*
X126000000Y-115800000D02*
X126900000Y-116700000D01*
%TD*%
%TA.AperFunction,Conductor*%
%TO.N,GND*%
G36*
X119199386Y-107528502D02*
G01*
X119245879Y-107582158D01*
X119255983Y-107652432D01*
X119252682Y-107668172D01*
X119210757Y-107819349D01*
X119200989Y-107854570D01*
X119177251Y-108076695D01*
X119177548Y-108081848D01*
X119177548Y-108081851D01*
X119189812Y-108294547D01*
X119190110Y-108299715D01*
X119191247Y-108304761D01*
X119191248Y-108304767D01*
X119204340Y-108362858D01*
X119239222Y-108517639D01*
X119323266Y-108724616D01*
X119439987Y-108915088D01*
X119586250Y-109083938D01*
X119758126Y-109226632D01*
X119802447Y-109252531D01*
X119831445Y-109269476D01*
X119880169Y-109321114D01*
X119893240Y-109390897D01*
X119866509Y-109456669D01*
X119826055Y-109490027D01*
X119813607Y-109496507D01*
X119809474Y-109499610D01*
X119809471Y-109499612D01*
X119785247Y-109517800D01*
X119634965Y-109630635D01*
X119480629Y-109792138D01*
X119354743Y-109976680D01*
X119260688Y-110179305D01*
X119200989Y-110394570D01*
X119177251Y-110616695D01*
X119177548Y-110621848D01*
X119177548Y-110621851D01*
X119183011Y-110716590D01*
X119190110Y-110839715D01*
X119191247Y-110844761D01*
X119191248Y-110844767D01*
X119211119Y-110932939D01*
X119239222Y-111057639D01*
X119323266Y-111264616D01*
X119439987Y-111455088D01*
X119586250Y-111623938D01*
X119758126Y-111766632D01*
X119828595Y-111807811D01*
X119831445Y-111809476D01*
X119880169Y-111861114D01*
X119893240Y-111930897D01*
X119866509Y-111996669D01*
X119826055Y-112030027D01*
X119813607Y-112036507D01*
X119809474Y-112039610D01*
X119809471Y-112039612D01*
X119785247Y-112057800D01*
X119634965Y-112170635D01*
X119480629Y-112332138D01*
X119354743Y-112516680D01*
X119260688Y-112719305D01*
X119200989Y-112934570D01*
X119177251Y-113156695D01*
X119177548Y-113161848D01*
X119177548Y-113161851D01*
X119183011Y-113256590D01*
X119190110Y-113379715D01*
X119191247Y-113384761D01*
X119191248Y-113384767D01*
X119211119Y-113472939D01*
X119239222Y-113597639D01*
X119323266Y-113804616D01*
X119439987Y-113995088D01*
X119586250Y-114163938D01*
X119758126Y-114306632D01*
X119828595Y-114347811D01*
X119831445Y-114349476D01*
X119880169Y-114401114D01*
X119893240Y-114470897D01*
X119866509Y-114536669D01*
X119826055Y-114570027D01*
X119813607Y-114576507D01*
X119809474Y-114579610D01*
X119809471Y-114579612D01*
X119785247Y-114597800D01*
X119634965Y-114710635D01*
X119480629Y-114872138D01*
X119354743Y-115056680D01*
X119260688Y-115259305D01*
X119200989Y-115474570D01*
X119177251Y-115696695D01*
X119177548Y-115701848D01*
X119177548Y-115701851D01*
X119183011Y-115796590D01*
X119190110Y-115919715D01*
X119191247Y-115924761D01*
X119191248Y-115924767D01*
X119203431Y-115978824D01*
X119239222Y-116137639D01*
X119323266Y-116344616D01*
X119325965Y-116349020D01*
X119436071Y-116528697D01*
X119439987Y-116535088D01*
X119586250Y-116703938D01*
X119758126Y-116846632D01*
X119811546Y-116877848D01*
X119831445Y-116889476D01*
X119880169Y-116941114D01*
X119893240Y-117010897D01*
X119866509Y-117076669D01*
X119826055Y-117110027D01*
X119813607Y-117116507D01*
X119809474Y-117119610D01*
X119809471Y-117119612D01*
X119698674Y-117202801D01*
X119634965Y-117250635D01*
X119631393Y-117254373D01*
X119517850Y-117373189D01*
X119480629Y-117412138D01*
X119477715Y-117416410D01*
X119477714Y-117416411D01*
X119431356Y-117484369D01*
X119354743Y-117596680D01*
X119260688Y-117799305D01*
X119200989Y-118014570D01*
X119177251Y-118236695D01*
X119177548Y-118241848D01*
X119177548Y-118241851D01*
X119183011Y-118336590D01*
X119190110Y-118459715D01*
X119191247Y-118464761D01*
X119191248Y-118464767D01*
X119207351Y-118536220D01*
X119239222Y-118677639D01*
X119323266Y-118884616D01*
X119439987Y-119075088D01*
X119586250Y-119243938D01*
X119758126Y-119386632D01*
X119828595Y-119427811D01*
X119831445Y-119429476D01*
X119880169Y-119481114D01*
X119893240Y-119550897D01*
X119866509Y-119616669D01*
X119826055Y-119650027D01*
X119813607Y-119656507D01*
X119809474Y-119659610D01*
X119809471Y-119659612D01*
X119639100Y-119787530D01*
X119634965Y-119790635D01*
X119480629Y-119952138D01*
X119354743Y-120136680D01*
X119260688Y-120339305D01*
X119200989Y-120554570D01*
X119177251Y-120776695D01*
X119177548Y-120781848D01*
X119177548Y-120781851D01*
X119183011Y-120876590D01*
X119190110Y-120999715D01*
X119191247Y-121004761D01*
X119191248Y-121004767D01*
X119211119Y-121092939D01*
X119239222Y-121217639D01*
X119323266Y-121424616D01*
X119439987Y-121615088D01*
X119586250Y-121783938D01*
X119758126Y-121926632D01*
X119828595Y-121967811D01*
X119831445Y-121969476D01*
X119880169Y-122021114D01*
X119893240Y-122090897D01*
X119866509Y-122156669D01*
X119826055Y-122190027D01*
X119813607Y-122196507D01*
X119809474Y-122199610D01*
X119809471Y-122199612D01*
X119785247Y-122217800D01*
X119634965Y-122330635D01*
X119480629Y-122492138D01*
X119354743Y-122676680D01*
X119260688Y-122879305D01*
X119200989Y-123094570D01*
X119177251Y-123316695D01*
X119177548Y-123321848D01*
X119177548Y-123321851D01*
X119183011Y-123416590D01*
X119190110Y-123539715D01*
X119191247Y-123544761D01*
X119191248Y-123544767D01*
X119211119Y-123632939D01*
X119239222Y-123757639D01*
X119323266Y-123964616D01*
X119439987Y-124155088D01*
X119586250Y-124323938D01*
X119590225Y-124327238D01*
X119590231Y-124327244D01*
X119595425Y-124331556D01*
X119635059Y-124390460D01*
X119636555Y-124461441D01*
X119599439Y-124521962D01*
X119559168Y-124546480D01*
X119451946Y-124586676D01*
X119436351Y-124595214D01*
X119334276Y-124671715D01*
X119321715Y-124684276D01*
X119245214Y-124786351D01*
X119236676Y-124801946D01*
X119191522Y-124922394D01*
X119187895Y-124937649D01*
X119182369Y-124988514D01*
X119182000Y-124995328D01*
X119182000Y-125617885D01*
X119186475Y-125633124D01*
X119187865Y-125634329D01*
X119195548Y-125636000D01*
X121879884Y-125636000D01*
X121895123Y-125631525D01*
X121896328Y-125630135D01*
X121897999Y-125622452D01*
X121897999Y-124995331D01*
X121897629Y-124988510D01*
X121892105Y-124937648D01*
X121888479Y-124922396D01*
X121843324Y-124801946D01*
X121834786Y-124786351D01*
X121758285Y-124684276D01*
X121745724Y-124671715D01*
X121643649Y-124595214D01*
X121628054Y-124586676D01*
X121517813Y-124545348D01*
X121461049Y-124502706D01*
X121460045Y-124500000D01*
X126386526Y-124500000D01*
X126406391Y-124752403D01*
X126465495Y-124998591D01*
X126562384Y-125232502D01*
X126694672Y-125448376D01*
X126697883Y-125452135D01*
X126853492Y-125634329D01*
X126859102Y-125640898D01*
X127051624Y-125805328D01*
X127267498Y-125937616D01*
X127272068Y-125939509D01*
X127272072Y-125939511D01*
X127496836Y-126032611D01*
X127501409Y-126034505D01*
X127586032Y-126054821D01*
X127742784Y-126092454D01*
X127742790Y-126092455D01*
X127747597Y-126093609D01*
X127847416Y-126101465D01*
X127934345Y-126108307D01*
X127934352Y-126108307D01*
X127936801Y-126108500D01*
X128063199Y-126108500D01*
X128065648Y-126108307D01*
X128065655Y-126108307D01*
X128152584Y-126101465D01*
X128252403Y-126093609D01*
X128257210Y-126092455D01*
X128257216Y-126092454D01*
X128413968Y-126054821D01*
X128498591Y-126034505D01*
X128503164Y-126032611D01*
X128727928Y-125939511D01*
X128727932Y-125939509D01*
X128732502Y-125937616D01*
X128948376Y-125805328D01*
X129140898Y-125640898D01*
X129146509Y-125634329D01*
X129302117Y-125452135D01*
X129305328Y-125448376D01*
X129437616Y-125232502D01*
X129534505Y-124998591D01*
X129593609Y-124752403D01*
X129613474Y-124500000D01*
X129593609Y-124247597D01*
X129591100Y-124237144D01*
X129554821Y-124086032D01*
X129534505Y-124001409D01*
X129517282Y-123959829D01*
X129439511Y-123772072D01*
X129439509Y-123772068D01*
X129437616Y-123767498D01*
X129305328Y-123551624D01*
X129140898Y-123359102D01*
X128948376Y-123194672D01*
X128732502Y-123062384D01*
X128727932Y-123060491D01*
X128727928Y-123060489D01*
X128503164Y-122967389D01*
X128503162Y-122967388D01*
X128498591Y-122965495D01*
X128413968Y-122945179D01*
X128257216Y-122907546D01*
X128257210Y-122907545D01*
X128252403Y-122906391D01*
X128152584Y-122898535D01*
X128065655Y-122891693D01*
X128065648Y-122891693D01*
X128063199Y-122891500D01*
X127936801Y-122891500D01*
X127934352Y-122891693D01*
X127934345Y-122891693D01*
X127847416Y-122898535D01*
X127747597Y-122906391D01*
X127742790Y-122907545D01*
X127742784Y-122907546D01*
X127586032Y-122945179D01*
X127501409Y-122965495D01*
X127496838Y-122967388D01*
X127496836Y-122967389D01*
X127272072Y-123060489D01*
X127272068Y-123060491D01*
X127267498Y-123062384D01*
X127051624Y-123194672D01*
X126859102Y-123359102D01*
X126694672Y-123551624D01*
X126562384Y-123767498D01*
X126560491Y-123772068D01*
X126560489Y-123772072D01*
X126482718Y-123959829D01*
X126465495Y-124001409D01*
X126445179Y-124086032D01*
X126408901Y-124237144D01*
X126406391Y-124247597D01*
X126386526Y-124500000D01*
X121460045Y-124500000D01*
X121436349Y-124436145D01*
X121451557Y-124366796D01*
X121473104Y-124338115D01*
X121574430Y-124237144D01*
X121574440Y-124237132D01*
X121578096Y-124233489D01*
X121637594Y-124150689D01*
X121705435Y-124056277D01*
X121708453Y-124052077D01*
X121731117Y-124006221D01*
X121805136Y-123856453D01*
X121805137Y-123856451D01*
X121807430Y-123851811D01*
X121872370Y-123638069D01*
X121901529Y-123416590D01*
X121903156Y-123350000D01*
X121884852Y-123127361D01*
X121830431Y-122910702D01*
X121741354Y-122705840D01*
X121620014Y-122518277D01*
X121469670Y-122353051D01*
X121465619Y-122349852D01*
X121465615Y-122349848D01*
X121298414Y-122217800D01*
X121298410Y-122217798D01*
X121294359Y-122214598D01*
X121253053Y-122191796D01*
X121203084Y-122141364D01*
X121188312Y-122071921D01*
X121213428Y-122005516D01*
X121240780Y-121978909D01*
X121284603Y-121947650D01*
X121419860Y-121851173D01*
X121578096Y-121693489D01*
X121637594Y-121610689D01*
X121705435Y-121516277D01*
X121708453Y-121512077D01*
X121807430Y-121311811D01*
X121872370Y-121098069D01*
X121901529Y-120876590D01*
X121903156Y-120810000D01*
X121884852Y-120587361D01*
X121830431Y-120370702D01*
X121741354Y-120165840D01*
X121620014Y-119978277D01*
X121469670Y-119813051D01*
X121465619Y-119809852D01*
X121465615Y-119809848D01*
X121298414Y-119677800D01*
X121298410Y-119677798D01*
X121294359Y-119674598D01*
X121253053Y-119651796D01*
X121203084Y-119601364D01*
X121188312Y-119531921D01*
X121213428Y-119465516D01*
X121240780Y-119438909D01*
X121284603Y-119407650D01*
X121419860Y-119311173D01*
X121426016Y-119305039D01*
X121574435Y-119157137D01*
X121578096Y-119153489D01*
X121637594Y-119070689D01*
X121705435Y-118976277D01*
X121708453Y-118972077D01*
X121781020Y-118825249D01*
X121805136Y-118776453D01*
X121805137Y-118776451D01*
X121807430Y-118771811D01*
X121872370Y-118558069D01*
X121901529Y-118336590D01*
X121901611Y-118333240D01*
X121903074Y-118273365D01*
X121903074Y-118273361D01*
X121903156Y-118270000D01*
X121884852Y-118047361D01*
X121830431Y-117830702D01*
X121741354Y-117625840D01*
X121620014Y-117438277D01*
X121469670Y-117273051D01*
X121465619Y-117269852D01*
X121465615Y-117269848D01*
X121298414Y-117137800D01*
X121298410Y-117137798D01*
X121294359Y-117134598D01*
X121253053Y-117111796D01*
X121203084Y-117061364D01*
X121188312Y-116991921D01*
X121213428Y-116925516D01*
X121240780Y-116898909D01*
X121284603Y-116867650D01*
X121419860Y-116771173D01*
X121578096Y-116613489D01*
X121612641Y-116565415D01*
X121705435Y-116436277D01*
X121708453Y-116432077D01*
X121731452Y-116385543D01*
X121805136Y-116236453D01*
X121805137Y-116236451D01*
X121807430Y-116231811D01*
X121841153Y-116120817D01*
X121870865Y-116023023D01*
X121870865Y-116023021D01*
X121872370Y-116018069D01*
X121901529Y-115796590D01*
X121901699Y-115789624D01*
X125256899Y-115789624D01*
X125273067Y-115954514D01*
X125325364Y-116111725D01*
X125411192Y-116253443D01*
X125526284Y-116372625D01*
X125532176Y-116376480D01*
X125532180Y-116376484D01*
X125623554Y-116436277D01*
X125664920Y-116463346D01*
X125671524Y-116465802D01*
X125671526Y-116465803D01*
X125742565Y-116492222D01*
X125820210Y-116521098D01*
X125827193Y-116522030D01*
X125827194Y-116522030D01*
X125884055Y-116529617D01*
X125948932Y-116558453D01*
X125956485Y-116565415D01*
X126463184Y-117072114D01*
X126474051Y-117084505D01*
X126492045Y-117107955D01*
X126522045Y-117130975D01*
X126522046Y-117130976D01*
X126551326Y-117153443D01*
X126611532Y-117199641D01*
X126750678Y-117257277D01*
X126781375Y-117261318D01*
X126862497Y-117271999D01*
X126862506Y-117272000D01*
X126862509Y-117272000D01*
X126862521Y-117272001D01*
X126891811Y-117275857D01*
X126891812Y-117275857D01*
X126900000Y-117276935D01*
X126908188Y-117275857D01*
X126911023Y-117275857D01*
X126979144Y-117295859D01*
X127025637Y-117349515D01*
X127035741Y-117419789D01*
X127006247Y-117484369D01*
X127000118Y-117490952D01*
X126257441Y-118233629D01*
X126195129Y-118267655D01*
X126181519Y-118269844D01*
X126171995Y-118270845D01*
X126147415Y-118273428D01*
X126147413Y-118273428D01*
X126140415Y-118274164D01*
X125983572Y-118327557D01*
X125963496Y-118339908D01*
X125848459Y-118410679D01*
X125848456Y-118410681D01*
X125842457Y-118414372D01*
X125724082Y-118530293D01*
X125720263Y-118536218D01*
X125720262Y-118536220D01*
X125702989Y-118563023D01*
X125634331Y-118669559D01*
X125631920Y-118676182D01*
X125631919Y-118676185D01*
X125580075Y-118818626D01*
X125580074Y-118818631D01*
X125577665Y-118825249D01*
X125556899Y-118989624D01*
X125573067Y-119154514D01*
X125625364Y-119311725D01*
X125629013Y-119317750D01*
X125670730Y-119386632D01*
X125711192Y-119453443D01*
X125826284Y-119572625D01*
X125832176Y-119576480D01*
X125832180Y-119576484D01*
X125944566Y-119650027D01*
X125964920Y-119663346D01*
X125971524Y-119665802D01*
X125971526Y-119665803D01*
X126042565Y-119692222D01*
X126120210Y-119721098D01*
X126284436Y-119743010D01*
X126291447Y-119742372D01*
X126291451Y-119742372D01*
X126442415Y-119728633D01*
X126449436Y-119727994D01*
X126456138Y-119725816D01*
X126456140Y-119725816D01*
X126600309Y-119678973D01*
X126600312Y-119678972D01*
X126607008Y-119676796D01*
X126676881Y-119635143D01*
X126743267Y-119595570D01*
X126743270Y-119595568D01*
X126749322Y-119591960D01*
X126846584Y-119499338D01*
X126864200Y-119482563D01*
X126864202Y-119482561D01*
X126869304Y-119477702D01*
X126960990Y-119339703D01*
X127019825Y-119184820D01*
X127023145Y-119161200D01*
X127029609Y-119115201D01*
X127058897Y-119050527D01*
X127065288Y-119043642D01*
X128100025Y-118008905D01*
X128162337Y-117974879D01*
X128189120Y-117972000D01*
X133787767Y-117972000D01*
X133856760Y-117992568D01*
X133932823Y-118042342D01*
X133964920Y-118063346D01*
X133971524Y-118065802D01*
X133971526Y-118065803D01*
X134042565Y-118092222D01*
X134120210Y-118121098D01*
X134284436Y-118143010D01*
X134291447Y-118142372D01*
X134291451Y-118142372D01*
X134442415Y-118128633D01*
X134449436Y-118127994D01*
X134456138Y-118125816D01*
X134456140Y-118125816D01*
X134600309Y-118078973D01*
X134600312Y-118078972D01*
X134607008Y-118076796D01*
X134702776Y-118019707D01*
X134743267Y-117995570D01*
X134743270Y-117995568D01*
X134749322Y-117991960D01*
X134814118Y-117930255D01*
X134864200Y-117882563D01*
X134864202Y-117882561D01*
X134869304Y-117877702D01*
X134960990Y-117739703D01*
X134999214Y-117639078D01*
X135017325Y-117591402D01*
X135017326Y-117591400D01*
X135019825Y-117584820D01*
X135033017Y-117490952D01*
X135042332Y-117424675D01*
X135042333Y-117424668D01*
X135042883Y-117420751D01*
X135043173Y-117400000D01*
X135044128Y-117400013D01*
X135059777Y-117335140D01*
X135111097Y-117286081D01*
X135168977Y-117272000D01*
X140787767Y-117272000D01*
X140856760Y-117292568D01*
X140964920Y-117363346D01*
X140971524Y-117365802D01*
X140971526Y-117365803D01*
X141042565Y-117392222D01*
X141120210Y-117421098D01*
X141284436Y-117443010D01*
X141291447Y-117442372D01*
X141291451Y-117442372D01*
X141442415Y-117428633D01*
X141449436Y-117427994D01*
X141456138Y-117425816D01*
X141456140Y-117425816D01*
X141600309Y-117378973D01*
X141600312Y-117378972D01*
X141607008Y-117376796D01*
X141676887Y-117335140D01*
X141743267Y-117295570D01*
X141743270Y-117295568D01*
X141749322Y-117291960D01*
X141851547Y-117194612D01*
X141864200Y-117182563D01*
X141864202Y-117182561D01*
X141869304Y-117177702D01*
X141960990Y-117039703D01*
X142019825Y-116884820D01*
X142025192Y-116846632D01*
X142042332Y-116724675D01*
X142042333Y-116724668D01*
X142042883Y-116720751D01*
X142043173Y-116700000D01*
X142024705Y-116535351D01*
X141970218Y-116378886D01*
X141945813Y-116339829D01*
X141886153Y-116244354D01*
X141882420Y-116238380D01*
X141765675Y-116120817D01*
X141755520Y-116114372D01*
X141711447Y-116086403D01*
X141625786Y-116032041D01*
X141529150Y-115997630D01*
X141476338Y-115978824D01*
X141476336Y-115978823D01*
X141469704Y-115976462D01*
X141462718Y-115975629D01*
X141462714Y-115975628D01*
X141341711Y-115961200D01*
X141305188Y-115956845D01*
X141298186Y-115957581D01*
X141298184Y-115957581D01*
X141147415Y-115973428D01*
X141147413Y-115973428D01*
X141140415Y-115974164D01*
X140983572Y-116027557D01*
X140850673Y-116109318D01*
X140784652Y-116128000D01*
X127189120Y-116128000D01*
X127120999Y-116107998D01*
X127100025Y-116091095D01*
X126766067Y-115757137D01*
X126732041Y-115694825D01*
X126729947Y-115682087D01*
X126725490Y-115642348D01*
X126725490Y-115642346D01*
X126724705Y-115635351D01*
X126670218Y-115478886D01*
X126582420Y-115338380D01*
X126465675Y-115220817D01*
X126455520Y-115214372D01*
X126411447Y-115186403D01*
X126325786Y-115132041D01*
X126209380Y-115090590D01*
X126176338Y-115078824D01*
X126176336Y-115078823D01*
X126169704Y-115076462D01*
X126162718Y-115075629D01*
X126162714Y-115075628D01*
X126043178Y-115061375D01*
X126005188Y-115056845D01*
X125998186Y-115057581D01*
X125998184Y-115057581D01*
X125847415Y-115073428D01*
X125847413Y-115073428D01*
X125840415Y-115074164D01*
X125683572Y-115127557D01*
X125670141Y-115135820D01*
X125548459Y-115210679D01*
X125548456Y-115210681D01*
X125542457Y-115214372D01*
X125424082Y-115330293D01*
X125334331Y-115469559D01*
X125331920Y-115476182D01*
X125331919Y-115476185D01*
X125280075Y-115618626D01*
X125280074Y-115618631D01*
X125277665Y-115625249D01*
X125256899Y-115789624D01*
X121901699Y-115789624D01*
X121903156Y-115730000D01*
X121884852Y-115507361D01*
X121830431Y-115290702D01*
X121741354Y-115085840D01*
X121620014Y-114898277D01*
X121469670Y-114733051D01*
X121465619Y-114729852D01*
X121465615Y-114729848D01*
X121298414Y-114597800D01*
X121298410Y-114597798D01*
X121294359Y-114594598D01*
X121253053Y-114571796D01*
X121203084Y-114521364D01*
X121188312Y-114451921D01*
X121213428Y-114385516D01*
X121240780Y-114358909D01*
X121284603Y-114327650D01*
X121419860Y-114231173D01*
X121578096Y-114073489D01*
X121637594Y-113990689D01*
X121705435Y-113896277D01*
X121708453Y-113892077D01*
X121807430Y-113691811D01*
X121872370Y-113478069D01*
X121901529Y-113256590D01*
X121903156Y-113190000D01*
X121884852Y-112967361D01*
X121830431Y-112750702D01*
X121741354Y-112545840D01*
X121620014Y-112358277D01*
X121469670Y-112193051D01*
X121465619Y-112189852D01*
X121465615Y-112189848D01*
X121298414Y-112057800D01*
X121298410Y-112057798D01*
X121294359Y-112054598D01*
X121253053Y-112031796D01*
X121203084Y-111981364D01*
X121188312Y-111911921D01*
X121213428Y-111845516D01*
X121240780Y-111818909D01*
X121284603Y-111787650D01*
X121419860Y-111691173D01*
X121578096Y-111533489D01*
X121637594Y-111450689D01*
X121705435Y-111356277D01*
X121708453Y-111352077D01*
X121807430Y-111151811D01*
X121839900Y-111044940D01*
X121870865Y-110943023D01*
X121870865Y-110943021D01*
X121872370Y-110938069D01*
X121901529Y-110716590D01*
X121903156Y-110650000D01*
X121884852Y-110427361D01*
X121830431Y-110210702D01*
X121741354Y-110005840D01*
X121620014Y-109818277D01*
X121469670Y-109653051D01*
X121465619Y-109649852D01*
X121465615Y-109649848D01*
X121298414Y-109517800D01*
X121298410Y-109517798D01*
X121294359Y-109514598D01*
X121267915Y-109500000D01*
X126386526Y-109500000D01*
X126406391Y-109752403D01*
X126407545Y-109757210D01*
X126407546Y-109757216D01*
X126445179Y-109913968D01*
X126465495Y-109998591D01*
X126467388Y-110003162D01*
X126467389Y-110003164D01*
X126555433Y-110215720D01*
X126562384Y-110232502D01*
X126694672Y-110448376D01*
X126859102Y-110640898D01*
X127051624Y-110805328D01*
X127267498Y-110937616D01*
X127272068Y-110939509D01*
X127272072Y-110939511D01*
X127496836Y-111032611D01*
X127501409Y-111034505D01*
X127576764Y-111052596D01*
X127742784Y-111092454D01*
X127742790Y-111092455D01*
X127747597Y-111093609D01*
X127847416Y-111101465D01*
X127934345Y-111108307D01*
X127934352Y-111108307D01*
X127936801Y-111108500D01*
X128063199Y-111108500D01*
X128065648Y-111108307D01*
X128065655Y-111108307D01*
X128152584Y-111101465D01*
X128252403Y-111093609D01*
X128257210Y-111092455D01*
X128257216Y-111092454D01*
X128423236Y-111052596D01*
X128498591Y-111034505D01*
X128503164Y-111032611D01*
X128727928Y-110939511D01*
X128727932Y-110939509D01*
X128732502Y-110937616D01*
X128948376Y-110805328D01*
X129140898Y-110640898D01*
X129305328Y-110448376D01*
X129437616Y-110232502D01*
X129444568Y-110215720D01*
X129532611Y-110003164D01*
X129532612Y-110003162D01*
X129534505Y-109998591D01*
X129554821Y-109913968D01*
X129592454Y-109757216D01*
X129592455Y-109757210D01*
X129593609Y-109752403D01*
X129613474Y-109500000D01*
X129593609Y-109247597D01*
X129589203Y-109229242D01*
X129535660Y-109006221D01*
X129534505Y-109001409D01*
X129532611Y-108996836D01*
X129439511Y-108772072D01*
X129439509Y-108772068D01*
X129437616Y-108767498D01*
X129305328Y-108551624D01*
X129140898Y-108359102D01*
X128948376Y-108194672D01*
X128732502Y-108062384D01*
X128727932Y-108060491D01*
X128727928Y-108060489D01*
X128503164Y-107967389D01*
X128503162Y-107967388D01*
X128498591Y-107965495D01*
X128413968Y-107945179D01*
X128257216Y-107907546D01*
X128257210Y-107907545D01*
X128252403Y-107906391D01*
X128152584Y-107898535D01*
X128065655Y-107891693D01*
X128065648Y-107891693D01*
X128063199Y-107891500D01*
X127936801Y-107891500D01*
X127934352Y-107891693D01*
X127934345Y-107891693D01*
X127847416Y-107898535D01*
X127747597Y-107906391D01*
X127742790Y-107907545D01*
X127742784Y-107907546D01*
X127586032Y-107945179D01*
X127501409Y-107965495D01*
X127496838Y-107967388D01*
X127496836Y-107967389D01*
X127272072Y-108060489D01*
X127272068Y-108060491D01*
X127267498Y-108062384D01*
X127051624Y-108194672D01*
X126859102Y-108359102D01*
X126694672Y-108551624D01*
X126562384Y-108767498D01*
X126560491Y-108772068D01*
X126560489Y-108772072D01*
X126467389Y-108996836D01*
X126465495Y-109001409D01*
X126464340Y-109006221D01*
X126410798Y-109229242D01*
X126406391Y-109247597D01*
X126386526Y-109500000D01*
X121267915Y-109500000D01*
X121253053Y-109491796D01*
X121203084Y-109441364D01*
X121188312Y-109371921D01*
X121213428Y-109305516D01*
X121240780Y-109278909D01*
X121291425Y-109242784D01*
X121419860Y-109151173D01*
X121578096Y-108993489D01*
X121637594Y-108910689D01*
X121705435Y-108816277D01*
X121708453Y-108812077D01*
X121807430Y-108611811D01*
X121872370Y-108398069D01*
X121901529Y-108176590D01*
X121903156Y-108110000D01*
X121884852Y-107887361D01*
X121830431Y-107670702D01*
X121831289Y-107670487D01*
X121828461Y-107604185D01*
X121864265Y-107542878D01*
X121927531Y-107510660D01*
X121950760Y-107508500D01*
X143874000Y-107508500D01*
X143942121Y-107528502D01*
X143988614Y-107582158D01*
X144000000Y-107634500D01*
X144000000Y-126365500D01*
X143979998Y-126433621D01*
X143926342Y-126480114D01*
X143874000Y-126491500D01*
X122024000Y-126491500D01*
X121955879Y-126471498D01*
X121909386Y-126417842D01*
X121898000Y-126365500D01*
X121898000Y-126162115D01*
X121893525Y-126146876D01*
X121892135Y-126145671D01*
X121884452Y-126144000D01*
X119200116Y-126144000D01*
X119184877Y-126148475D01*
X119183672Y-126149865D01*
X119182001Y-126157548D01*
X119182001Y-126365500D01*
X119161999Y-126433621D01*
X119108343Y-126480114D01*
X119056001Y-126491500D01*
X118634500Y-126491500D01*
X118566379Y-126471498D01*
X118519886Y-126417842D01*
X118508500Y-126365500D01*
X118508500Y-107634500D01*
X118528502Y-107566379D01*
X118582158Y-107519886D01*
X118634500Y-107508500D01*
X119131265Y-107508500D01*
X119199386Y-107528502D01*
G37*
%TD.AperFunction*%
%TD*%
M02*
